<svg xmlns="http://www.w3.org/2000/svg" viewBox="0 0 1920 1080"><defs><style>.cls-1{fill:#f7f7f7;}.cls-2{fill:#f2f2f2;}.cls-3{fill:#efefef;}.cls-4{fill:#effaf5;}.cls-5{fill:#fff;}.cls-6{fill:#4dba8e;}.cls-6,.cls-7,.cls-8{opacity:0.5;}.cls-7{fill:#283487;}.cls-8{fill:#3c4c68;}</style></defs><g id="special2"><rect class="cls-1" y="131.5" width="1920" height="949"/><rect class="cls-2" x="1276" y="-0.5" width="399" height="1080"/><rect class="cls-3" x="245" y="0.5" width="310" height="1080"/><rect class="cls-4" y="0.5" width="1920" height="131"/><rect class="cls-5" x="587" y="167.5" width="655" height="533" rx="51.27"/><rect class="cls-5" x="587" y="737.5" width="655" height="533" rx="51.27"/><rect class="cls-5" x="273" y="167.5" width="254" height="88" rx="6.5"/><rect class="cls-5" x="273" y="277.5" width="254" height="26" rx="6.5"/><rect class="cls-5" x="273" y="325.5" width="254" height="25" rx="6.5"/><rect class="cls-5" x="1325" y="30.5" width="342" height="59" rx="15.1"/><rect class="cls-6" x="651" y="202.5" width="523" height="22" rx="6.5"/><path class="cls-6" d="M994,242.5H657.5A6.5,6.5,0,0,0,651,249v9a6.5,6.5,0,0,0,6.5,6.5H994"/><path class="cls-6" d="M1019.23,264.5H1167.5a6.5,6.5,0,0,0,6.5-6.5v-9a6.5,6.5,0,0,0-6.5-6.5H1019.23"/><rect class="cls-6" x="651" y="282.5" width="523" height="22" rx="6.5"/><rect class="cls-6" x="1057" y="322.5" width="117" height="22" rx="6.5"/><rect class="cls-6" x="651" y="642.5" width="523" height="22" rx="6.5"/><path class="cls-6" d="M847.14,794.5H1167.5a6.5,6.5,0,0,0,6.5-6.5v-9a6.5,6.5,0,0,0-6.5-6.5H847.14"/><path class="cls-6" d="M826.57,772.5H657.5A6.5,6.5,0,0,0,651,779v9a6.5,6.5,0,0,0,6.5,6.5H826.57"/><rect class="cls-6" x="651" y="812.5" width="523" height="22" rx="6.5"/><rect class="cls-6" x="651" y="852.5" width="394" height="22" rx="6.5"/><rect class="cls-5" x="1335" y="162.5" width="277" height="573" rx="6.5"/><rect class="cls-7" x="1362" y="189.5" width="226" height="13" rx="6.5"/><path class="cls-7" d="M1546.37,222.5h35.13a6.5,6.5,0,0,0,6.5-6.5h0a6.5,6.5,0,0,0-6.5-6.5h-38.69"/><path class="cls-7" d="M1532.33,209.5H1368.5a6.5,6.5,0,0,0-6.5,6.5h0a6.5,6.5,0,0,0,6.5,6.5h168.38"/><rect class="cls-7" x="1362" y="379.5" width="226" height="13" rx="6.5"/><rect class="cls-6" x="1378" y="399.5" width="210" height="13" rx="6.5"/><rect class="cls-8" x="1362" y="419.5" width="226" height="13" rx="6.5"/><rect class="cls-8" x="287" y="182.5" width="226" height="13" rx="6.5"/><rect class="cls-8" x="1555" y="53.5" width="101" height="13" rx="6.5"/><rect class="cls-7" x="1401" y="694.5" width="187" height="8" rx="4"/></g></svg>