<svg xmlns="http://www.w3.org/2000/svg" viewBox="0 0 1920 1080"><defs><style>.cls-1{fill:#ebeef3;}.cls-2{fill:#edf4ff;}.cls-3{fill:#fff;}.cls-4{fill:#b3e7cd;}.cls-5{fill:#deebff;}.cls-6{fill:#effaf5;}.cls-7{fill:#283487;opacity:0.5;}</style></defs><g id="special1"><rect class="cls-1" width="371" height="1080"/><rect class="cls-2" x="371" width="1549" height="1080"/><rect class="cls-3" x="470" y="55" width="1351" height="91" rx="32.96"/><rect class="cls-4" x="1527" y="88" width="251" height="24" rx="12"/><rect class="cls-5" x="533" y="73" width="917" height="54" rx="27"/><rect class="cls-3" x="470" y="264" width="980" height="727" rx="60.15"/><rect class="cls-3" x="1518" y="264" width="303" height="487" rx="39.14"/><rect class="cls-3" x="1518" y="809" width="303" height="182" rx="37.24"/><rect class="cls-3" x="52" y="55" width="267" height="91" rx="31.94"/><rect class="cls-3" x="52" y="260" width="267" height="28" rx="12.49"/><rect class="cls-3" x="52" y="312" width="267" height="28" rx="12.49"/><rect class="cls-3" x="52" y="364" width="267" height="28" rx="12.49"/><rect class="cls-6" x="67" y="991" width="252" height="28" rx="12.37"/><rect class="cls-7" x="548" y="312" width="820" height="28" rx="8.5"/><rect class="cls-7" x="1550" y="312" width="239" height="17" rx="8.5"/><rect class="cls-7" x="1550" y="342" width="239" height="17" rx="8.5"/><rect class="cls-7" x="1550" y="372" width="190" height="17" rx="8.5"/><rect class="cls-7" x="1550" y="402" width="219" height="17" rx="8.5"/><rect class="cls-7" x="1550" y="842" width="239" height="17" rx="8.5"/><rect class="cls-7" x="1550" y="872" width="178" height="17" rx="8.5"/><rect class="cls-7" x="548" y="362" width="820" height="28" rx="8.5"/><rect class="cls-7" x="548" y="412" width="200" height="28" rx="8.5"/></g></svg>