<svg xmlns="http://www.w3.org/2000/svg" viewBox="0 0 1920 1080"><defs><style>.cls-1{fill:#ebeef3;}.cls-2{fill:#effaf5;}.cls-3{fill:#9fbfff;}.cls-4{fill:#fff;}.cls-5{fill:#edf4ff;}.cls-6{fill:#3c4c68;opacity:0.25;}.cls-7{fill:#4b6bfb;}.cls-7,.cls-8{opacity:0.5;}.cls-8,.cls-9{fill:#4dba8e;}.cls-9{opacity:0.7;}</style></defs><g id="special3"><rect class="cls-1" width="585" height="1079"/><rect class="cls-2" x="585" y="914" width="1335" height="165"/><rect class="cls-3" x="585" width="1336" height="162"/><rect class="cls-4" x="67" y="65" width="452" height="177" rx="13"/><rect class="cls-4" x="67" y="281" width="452" height="69" rx="13"/><rect class="cls-4" x="67" y="381" width="452" height="69" rx="13"/><rect class="cls-4" x="67" y="671" width="452" height="69" rx="13"/><rect class="cls-4" x="67" y="754" width="452" height="36" rx="13"/><rect class="cls-4" x="67" y="961" width="452" height="69" rx="13"/><rect class="cls-4" x="661" y="961" width="740" height="69" rx="13"/><rect class="cls-4" x="1427" y="1004" width="452" height="26" rx="13"/><rect class="cls-4" x="1427" y="961" width="452" height="27" rx="13"/><rect class="cls-4" x="1503" y="30" width="364" height="36" rx="18"/><rect class="cls-4" x="641" y="80" width="1226" height="45" rx="18"/><rect class="cls-5" x="1173" y="193" width="694" height="694" rx="48.73"/><rect class="cls-5" x="643" y="193" width="452" height="694" rx="48.03"/><path class="cls-6" d="M830.35,249H705a11,11,0,0,1-11-11h0a11,11,0,0,1,11-11H830.35"/><path class="cls-6" d="M845,227h189a11,11,0,0,1,11,11h0a11,11,0,0,1-11,11H845"/><rect class="cls-6" x="1212" y="227" width="617" height="22" rx="11"/><rect class="cls-6" x="1212" y="267" width="617" height="22" rx="11"/><path class="cls-6" d="M1748.29,329H1223a11,11,0,0,1-11-11h0a11,11,0,0,1,11-11h525.29"/><path class="cls-6" d="M1766.88,307H1818a11,11,0,0,1,11,11h0a11,11,0,0,1-11,11h-51.12"/><rect class="cls-6" x="1346" y="797" width="483" height="22" rx="11"/><rect class="cls-6" x="1601" y="837" width="228" height="22" rx="11"/><rect class="cls-6" x="694" y="267" width="302" height="22" rx="11"/><rect class="cls-6" x="694" y="307" width="351" height="22" rx="11"/><rect class="cls-6" x="694" y="347" width="193" height="22" rx="11"/><rect class="cls-7" x="690" y="985" width="351" height="22" rx="10"/><rect class="cls-8" x="1696" y="44" width="153" height="9" rx="4.5"/><rect class="cls-9" x="105" y="94" width="264" height="20" rx="10"/><rect class="cls-9" x="105" y="124" width="132" height="20" rx="10"/><rect class="cls-9" x="105" y="695" width="132" height="20" rx="10"/></g></svg>