<svg xmlns="http://www.w3.org/2000/svg" viewBox="0 0 293 299.26"><defs><style>.cls-1{fill:#4b6bfb;}</style></defs><g id="Layer_2" data-name="Layer 2"><g id="Layer_11" data-name="Layer 11"><path class="cls-1" d="M293,153a171.8,171.8,0,0,0-2.71-30.52H149.78v57.78h80.29a68.77,68.77,0,0,1-29.39,44.5l-9.29,5.71c-11.77,5.91-25.77,9.35-41.76,9.35-38.91,0-72-26.25-83.8-61.62l-.06-.09,0,0,.09-.07a87.28,87.28,0,0,1,0-56.86h0c11.83-35.37,44.89-61.62,83.79-61.62h0c22,0,41.62,7.62,57.27,22.31L249.75,39C223.77,14.83,190,0,149.63,0A149.37,149.37,0,0,0,16.05,82.57l1.4,1.09-1.4-1.09a148.12,148.12,0,0,0,0,134.12h0c24.62,48.84,75.08,82.57,133.58,82.57,40.4,0,73.61-13.47,98.37-36.32l2.12-1.73h0C277.33,235.21,293,197.56,293,153Z"/></g></g></svg>