<svg xmlns="http://www.w3.org/2000/svg" viewBox="0 0 517 312.5"><defs><style>.cls-1{fill:none;stroke:#4b6bfb;stroke-miterlimit:10;stroke-width:3px;}.cls-2{fill:#4b6bfb;}</style></defs><g id="Layer_2" data-name="Layer 2"><g id="Layer_11" data-name="Layer 11"><rect class="cls-1" x="428.5" y="151.5" width="87" height="159.5" rx="21.04"/><path class="cls-1" d="M141.5,213.5V290a21,21,0,0,1-21,21H22.54a21,21,0,0,1-21-21V130.54a21,21,0,0,1,21-21h32"/><path class="cls-1" d="M482.5,151.5v-129a21,21,0,0,0-21-21H75.54a21,21,0,0,0-21,21v87h66a21,21,0,0,1,21,21v83"/><polyline class="cls-1" points="428.5 242.5 299.5 242.5 236.5 242.5 141.5 242.5"/><rect class="cls-1" x="236.5" y="242.5" width="63" height="53"/><rect class="cls-1" x="200.5" y="295.5" width="135" height="11" rx="4.59"/><line class="cls-1" x1="428.5" y1="213.5" x2="141.5" y2="213.5"/><circle class="cls-2" cx="268" cy="228" r="3"/><circle class="cls-2" cx="72" cy="300" r="3"/><circle class="cls-2" cx="473" cy="300" r="3"/></g></g></svg>