<svg xmlns="http://www.w3.org/2000/svg" xmlns:xlink="http://www.w3.org/1999/xlink" viewBox="0 0 664.02 149.58"><defs><style>.cls-1{fill:url(#linear-gradient);}.cls-2{fill:url(#linear-gradient-2);}.cls-3{fill:url(#linear-gradient-3);}.cls-4{fill:url(#linear-gradient-4);}.cls-5{fill:url(#linear-gradient-5);}.cls-6{fill:url(#linear-gradient-6);}.cls-7{fill:url(#linear-gradient-7);}.cls-8{fill:url(#linear-gradient-8);}.cls-9{fill:#67cba0;}</style><linearGradient id="linear-gradient" x1="-132.52" y1="360.98" x2="669.76" y2="35" gradientUnits="userSpaceOnUse"><stop offset="0" stop-color="#4b6bfb"/><stop offset="1"/></linearGradient><linearGradient id="linear-gradient-2" x1="-177.7" y1="249.79" x2="624.59" y2="-76.19" xlink:href="#linear-gradient"/><linearGradient id="linear-gradient-3" x1="-203.18" y1="187.09" x2="599.11" y2="-138.89" xlink:href="#linear-gradient"/><linearGradient id="linear-gradient-4" x1="-179.03" y1="246.53" x2="623.26" y2="-79.45" xlink:href="#linear-gradient"/><linearGradient id="linear-gradient-5" x1="-135.58" y1="353.47" x2="666.71" y2="27.49" xlink:href="#linear-gradient"/><linearGradient id="linear-gradient-6" x1="-159.31" y1="295.06" x2="642.98" y2="-30.91" xlink:href="#linear-gradient"/><linearGradient id="linear-gradient-7" x1="-168.63" y1="272.1" x2="633.65" y2="-53.87" xlink:href="#linear-gradient"/><linearGradient id="linear-gradient-8" x1="-212.12" y1="165.09" x2="590.17" y2="-160.89" xlink:href="#linear-gradient"/></defs><g id="Layer_2" data-name="Layer 2"><g id="jeweb_new" data-name="jeweb new"><path class="cls-1" d="M583.59.09c25.49,0,40.28,12.42,43.45,36.8,1.36,10.48-2.74,19.88-9.23,28.12,1.26,2.76,3.81,3.89,5.72,5.62A44.4,44.4,0,0,1,635,119.75c-6.18,16.18-22.4,27.19-40.35,27.26q-22.23.09-44.46,0c-7.16,0-10.88-3.11-10.95-8.69-.06-5.89,3.89-9.39,11.07-9.44,14.38-.1,28.76.11,43.13-.1a26.26,26.26,0,0,0,24.86-18.53,24.88,24.88,0,0,0-8.78-26.64C603.35,79,596.08,78.21,588.73,78c-12.81-.31-25.61,1.37-38.45.06-7-.71-11.49-4.18-11.37-9.46.13-5.56,4.31-8.77,11.68-8.95,13-.3,26.09-.36,39.12-1,9.56-.45,16.28-6.4,18.42-15.35,1.86-7.78-2.4-17.18-9.72-21.58-3.77-2.27-7.93-2.65-12.15-2.67-10.4,0-20.8,0-31.19,0a40.92,40.92,0,0,1-7.27-.4c-5.41-1-9-3.9-8.5-9.89S543.5.2,549.1.14C560.38,0,571.66.09,583.59.09Z"/><path class="cls-2" d="M306.58,77.71c-8.32,20.78-16.47,41.07-24.62,61.37-.41,1-.83,2-1.29,3-1,2.24-2,4.64-5,4.62-3.28,0-4.44-2.55-5.29-5.12-3.68-11.11-7.29-22.25-10.94-33.37Q244.23,62,229,15.77c-2.46-7.46-.25-13.22,5.91-15.13,5.63-1.74,10.73,1.77,13.09,9Q260.9,49,273.83,88.33c.73,2.21.88,4.83,3.52,6.63,3.8-4.44,5.12-10.07,7.19-15.22,9.14-22.77,18-45.63,27-68.44a35.88,35.88,0,0,1,2.61-5.36c3.17-5.28,8.11-7.07,12.86-4.81,5.22,2.49,7.17,7.45,4.83,13.35C323.58,35.42,315.14,56.31,306.58,77.71Z"/><path class="cls-3" d="M78.58,109.71A64.21,64.21,0,0,0,81.1,90.3c-.26-25.87-.18-51.75-.14-77.62a20.87,20.87,0,0,1,1.15-7.16C83.38,2.11,86.32.42,89.89.29a8.23,8.23,0,0,1,8.17,4.65,13.41,13.41,0,0,1,1.45,5.7c0,31,.53,62-.4,92.88-.72,24-21.32,43.06-47.19,45.85-21,2.26-43.91-14-50.15-35.65A37.49,37.49,0,0,1,.09,108c-.58-4.8,1.75-8.14,6.08-9.89,4.51-1.82,8.27-.33,10.92,3.62a19.66,19.66,0,0,1,2,4.88C23.46,120,32,128.9,46.42,130.17,61.79,131.53,72,123.63,78.58,109.71Z"/><path class="cls-4" d="M143.17,97.41c0,8.63.22,16.6-.06,24.55-.18,5.08,1.46,7,6.82,6.94,18.35-.28,36.72-.08,55.08-.1,3.61,0,7.15.1,9.71,3.15,2.31,2.75,3.07,5.86,1.69,9.27-1.58,3.93-4.57,5.77-8.79,5.77q-22.89,0-45.79,0c-8.84,0-17.69.06-26.54,0-7.36-.1-11-3.18-11-10.25q-.3-31.86,0-63.71c.09-7.84,4.18-11.66,12.24-11.73q28.86-.26,57.73,0c7.43.07,11.66,4.09,11.54,10-.13,5.71-4.16,9-11.52,9.07-14.37.09-28.76.25-43.13-.1-6-.14-8.7,1.62-8,7.84A85.63,85.63,0,0,1,143.17,97.41Z"/><path class="cls-5" d="M510.91,76c-3,4.06-6.89,4.45-11,4.43-13.92,0-27.85.22-41.76-.16-6.19-.17-8.7,1.51-8.39,8.12.51,10.58.49,21.22,0,31.8-.29,6.5,1.45,9,8.4,8.76,17-.48,34-.16,51-.14a43.82,43.82,0,0,1,6,.15c5.35.73,8.71,4.12,8.59,9.28s-3.57,8.66-9,8.68q-37.44.16-74.9-.05c-6.37,0-8.95-4.66-9-10.23-.2-21.43-.23-42.86,0-64.29.08-7,4.37-11,11.5-11.07,19.44-.19,38.89-.27,58.32,0C510.23,61.46,513.8,66.74,510.91,76Z"/><path class="cls-6" d="M333.78,68c-.18-6,2.43-9.54,7.71-10.5,5.72-1,9.27,2.33,11.29,7.19,4.31,10.35,8.36,20.8,13.22,33,2.18-6.12,3.84-10.54,5.32-15q12-36.48,23.89-73c1.28-4,3.07-7.38,7.2-8.9,3.94-1.46,7.49-.36,10.43,2.32,3.63,3.32,3.16,7.56,1.81,11.7-4.08,12.59-8.26,25.16-12.42,37.73q-14.49,43.68-29,87.36c-1,3.16-1.68,6.86-6,6.8-4-.06-4.49-3.8-5.57-6.56C352.36,116.29,343.1,92.43,333.78,68Z"/><path class="cls-7" d="M496.08.09c6.18,0,11.7-.13,17.2.07C519.62.4,524,4.43,524,9.62c0,4.81-4.28,9.26-10.24,9.31q-36.39.33-72.78,0c-6.24-.06-10.33-4.82-10-10.14C431.32,4,435.86.16,441.81.12,459.68,0,477.55.09,496.08.09Z"/><path class="cls-8" d="M207.89.78a10.35,10.35,0,0,1,7,2.93c2,2.13,2.7,4.82,1.85,8.16-1.29,5.05-5.19,7.13-10,7.14-23.86.09-47.72.1-71.58-.11-5.55,0-10.24-2.6-10.48-8.84C124.45,4.5,127.74.35,133.4.32,158.07.19,182.76-.55,207.89.78Z"/><circle class="cls-9" cx="655.02" cy="137.79" r="9"/></g></g></svg>