<svg xmlns="http://www.w3.org/2000/svg" viewBox="0 0 765 405.53"><defs><style>.cls-1{fill:none;stroke:#4b6bfb;stroke-miterlimit:10;stroke-width:5px;}.cls-2{fill:#4b6bfb;}</style></defs><g id="Layer_2" data-name="Layer 2"><g id="Layer_7" data-name="Layer 7"><g id="picture"><rect class="cls-1" x="2.5" y="2.5" width="760" height="400.53" rx="70.45"/><line class="cls-1" x1="3" y1="72.76" x2="762" y2="72.76"/><circle class="cls-2" cx="67" cy="38.76" r="7.5"/><circle class="cls-2" cx="107" cy="38.76" r="7.5"/><circle class="cls-2" cx="147" cy="38.76" r="7.5"/><rect class="cls-2" x="283.5" y="35.26" width="414" height="7"/><polygon class="cls-1" points="715.5 231.26 448.5 231.26 448.5 181.53 448.5 174.26 448.5 117.26 715.5 117.26 715.5 231.26"/><path class="cls-1" d="M448.5,180c7.62-4.68,18.63-11.17,33.5-19.28,30.46-16.62,80.52,11.08,140,70.5"/><circle class="cls-1" cx="655" cy="155.76" r="16"/><line class="cls-1" x1="449" y1="292.76" x2="715" y2="292.76"/><line class="cls-1" x1="689.62" y1="327.76" x2="715" y2="327.76"/><line class="cls-1" x1="449" y1="327.76" x2="671" y2="327.76"/><rect class="cls-1" x="54" y="247.76" width="269" height="106"/><line class="cls-1" x1="347.13" y1="135.76" x2="391" y2="135.76"/><line class="cls-1" x1="55" y1="135.76" x2="303.27" y2="135.76"/><line class="cls-1" x1="55" y1="165.76" x2="391" y2="165.76"/><line class="cls-1" x1="55" y1="195.76" x2="108" y2="195.76"/></g></g></g></svg>