<svg xmlns="http://www.w3.org/2000/svg" viewBox="0 0 1920 1080"><defs><style>.cls-1{fill:#f5f7fa;}.cls-2{fill:#ebeef3;}.cls-3{fill:#c3daff;}.cls-4{fill:#fff;}.cls-5{fill:#283487;}.cls-5,.cls-6,.cls-7,.cls-8{opacity:0.5;}.cls-6{fill:#2f394b;}.cls-7{fill:#3c4c68;}.cls-8{fill:#67cba0;}</style></defs><g id="Layer_2" data-name="Layer 2"><g id="mockupVision"><rect class="cls-1" width="1920" height="1080"/><rect class="cls-2" width="1920" height="113"/><rect class="cls-3" x="1620" y="113" width="300" height="967"/><rect class="cls-4" x="79" y="217" width="867" height="468" rx="56.57"/><rect class="cls-4" x="1101" y="217" width="448" height="468" rx="57.41"/><rect class="cls-4" x="1101" y="782" width="448" height="230" rx="51.04"/><rect class="cls-4" x="79" y="782" width="867" height="230" rx="47.03"/><rect class="cls-4" x="1653" y="145" width="235" height="94" rx="30.36"/><rect class="cls-4" x="1653" y="265" width="235" height="24" rx="12"/><rect class="cls-4" x="1653" y="1012" width="235" height="24" rx="12"/><rect class="cls-4" x="1802" y="315" width="86" height="24" rx="12"/><rect class="cls-4" x="79" y="29" width="235" height="55.93" rx="27.97"/><rect class="cls-5" x="127" y="260" width="771" height="18" rx="9"/><rect class="cls-6" x="684" y="145" width="552" height="21" rx="9"/><rect class="cls-7" x="1742" y="163" width="133" height="13" rx="6.5"/><rect class="cls-7" x="1814" y="185" width="62" height="13" rx="6.5"/><rect class="cls-8" x="95" y="46" width="102" height="21" rx="9"/><rect class="cls-5" x="1140" y="260" width="370" height="18" rx="9"/><rect class="cls-5" x="1364" y="300" width="146" height="18" rx="9"/><rect class="cls-5" x="1216" y="340" width="294" height="18" rx="9"/><rect class="cls-5" x="1140" y="810" width="370" height="18" rx="9"/><rect class="cls-5" x="1140" y="850" width="370" height="18" rx="9"/><rect class="cls-5" x="533" y="620" width="365" height="18" rx="9"/><rect class="cls-5" x="127" y="300" width="666" height="18" rx="9"/><rect class="cls-5" x="127" y="340" width="771" height="18" rx="9"/><rect class="cls-5" x="127" y="380" width="285" height="18" rx="9"/><rect class="cls-5" x="127" y="820" width="771" height="18" rx="9"/><rect class="cls-5" x="127" y="860" width="266" height="18" rx="9"/></g></g></svg>